<svg xmlns="http://www.w3.org/2000/svg" version="1.1" xmlns:xlink="http://www.w3.org/1999/xlink" xmlns:svgjs="http://svgjs.dev/svgjs" width="2000" height="1247" viewBox="0 0 2000 1247"><g transform="matrix(1,0,0,1,-1.2121212121212466,0.5048582995952984)"><svg viewBox="0 0 396 247" data-background-color="#ffffff" preserveAspectRatio="xMidYMid meet" height="1247" width="2000" xmlns="http://www.w3.org/2000/svg" xmlns:xlink="http://www.w3.org/1999/xlink"><g id="tight-bounds" transform="matrix(1,0,0,1,0.2400000000000091,-0.09999999999999432)"><svg viewBox="0 0 395.52 247.2" height="247.2" width="395.52"><g><svg></svg></g><g><svg viewBox="0 0 395.52 247.2" height="247.2" width="395.52"><g transform="matrix(1,0,0,1,75.54432,104.36849058617832)"><svg viewBox="0 0 244.43135999999998 38.463018827643324" height="38.463018827643324" width="244.43135999999998"><g><svg viewBox="0 0 244.43135999999998 38.463018827643324" height="38.463018827643324" width="244.43135999999998"><g><svg viewBox="0 0 244.43135999999998 38.463018827643324" height="38.463018827643324" width="244.43135999999998"><g id="textblocktransform"><svg viewBox="0 0 244.43135999999998 38.463018827643324" height="38.463018827643324" width="244.43135999999998" id="textblock"><g><svg viewBox="0 0 244.43135999999998 38.463018827643324" height="38.463018827643324" width="244.43135999999998"><g transform="matrix(1,0,0,1,0,0)"><svg width="244.43135999999998" viewBox="3.98 -41.19 265.28999999999996 41.75" height="38.463018827643324" data-palette-color="#ff4136"><path d="M38.06-17.63L38.06-17.63Q38.06-15.06 37.38-12.76 36.69-10.45 35.46-8.5 34.23-6.54 32.52-4.97 30.81-3.39 28.75-2.29 26.68-1.2 24.33-0.6 21.97 0 19.48 0L19.48 0 3.98 0 3.98-35.16 19.48-35.16Q21.97-35.16 24.32-34.57 26.66-33.98 28.72-32.9 30.79-31.81 32.51-30.25 34.23-28.69 35.46-26.75 36.69-24.8 37.38-22.5 38.06-20.19 38.06-17.63ZM28.22-17.63L28.22-17.63Q28.22-20.48 27.53-23.06 26.83-25.63 25.37-27.59 23.9-29.54 21.64-30.69 19.38-31.84 16.24-31.84L16.24-31.84 13.67-31.84 13.67-3.42 16.24-3.42Q19.34-3.42 21.59-4.58 23.85-5.74 25.33-7.7 26.81-9.67 27.51-12.23 28.22-14.79 28.22-17.63ZM50.02-13.38L50.02-13.38Q51.54-13.04 53.05-12.84 54.56-12.65 56.1-12.65L56.1-12.65Q57.71-12.65 59.09-12.95 60.47-13.26 61.48-13.98 62.5-14.7 63.08-15.89 63.67-17.09 63.67-18.87L63.67-18.87Q63.67-20.31 63.28-21.51 62.89-22.71 62.12-23.56 61.35-24.41 60.23-24.89 59.1-25.37 57.61-25.37L57.61-25.37Q56.22-25.37 55.11-24.85 54-24.34 53.16-23.47 52.32-22.61 51.72-21.46 51.12-20.31 50.73-19.07 50.34-17.82 50.17-16.55 50-15.28 50-14.16L50-14.16Q50-13.96 50-13.77 50-13.57 50.02-13.38ZM70.36-18.95L70.36-18.95Q70.36-17.21 69.8-15.86 69.24-14.5 68.27-13.48 67.31-12.45 66.04-11.74 64.77-11.04 63.33-10.58 61.89-10.13 60.36-9.94 58.84-9.74 57.39-9.74L57.39-9.74Q55.56-9.74 53.78-10 52-10.25 50.27-10.82L50.27-10.82Q50.53-9.2 51.12-7.75 51.71-6.3 52.68-5.21 53.66-4.13 55.09-3.49 56.52-2.86 58.47-2.86L58.47-2.86Q59.76-2.86 60.94-3.25 62.11-3.64 63.08-4.35 64.06-5.05 64.8-6.03 65.55-7.01 66.01-8.2L66.01-8.2 69.58-6.88Q68.77-4.96 67.37-3.55 65.96-2.15 64.19-1.23 62.42-0.32 60.43 0.12 58.44 0.56 56.49 0.56L56.49 0.56Q53.27 0.56 50.53-0.52 47.8-1.61 45.82-3.56 43.85-5.52 42.72-8.23 41.6-10.94 41.6-14.16L41.6-14.16Q41.6-17.38 42.72-20.09 43.85-22.8 45.82-24.76 47.8-26.71 50.53-27.8 53.27-28.88 56.49-28.88L56.49-28.88Q58.05-28.88 59.69-28.66 61.33-28.44 62.86-27.97 64.4-27.49 65.77-26.73 67.14-25.98 68.15-24.87 69.16-23.75 69.76-22.29 70.36-20.83 70.36-18.95ZM83.76-32.62L83.76 0 75.51 0 75.51-41.19 78.68-41.19 83.76-32.62ZM99.31-35.01L99.31-35.01Q99.31-34.08 98.95-33.25 98.6-32.42 97.99-31.81 97.38-31.2 96.55-30.85 95.72-30.49 94.79-30.49L94.79-30.49Q93.86-30.49 93.05-30.85 92.23-31.2 91.62-31.81 91.01-32.42 90.65-33.25 90.3-34.08 90.3-35.01L90.3-35.01Q90.3-35.94 90.65-36.76 91.01-37.57 91.62-38.18 92.23-38.79 93.05-39.15 93.86-39.5 94.79-39.5L94.79-39.5Q95.72-39.5 96.55-39.15 97.38-38.79 97.99-38.18 98.6-37.57 98.95-36.76 99.31-35.94 99.31-35.01ZM98.94-28.17L98.94 0 90.67 0 90.67-28.17 98.94-28.17ZM131.46-28.2L120.35 0 112.93 0 102.68-28.2 110.93-28.2 118.45-5.74 125.75-28.2 131.46-28.2ZM141.17-13.38L141.17-13.38Q142.69-13.04 144.2-12.84 145.72-12.65 147.25-12.65L147.25-12.65Q148.86-12.65 150.24-12.95 151.62-13.26 152.64-13.98 153.65-14.7 154.24-15.89 154.82-17.09 154.82-18.87L154.82-18.87Q154.82-20.31 154.43-21.51 154.04-22.71 153.27-23.56 152.5-24.41 151.38-24.89 150.26-25.37 148.77-25.37L148.77-25.37Q147.38-25.37 146.26-24.85 145.15-24.34 144.31-23.47 143.47-22.61 142.87-21.46 142.27-20.31 141.88-19.07 141.49-17.82 141.32-16.55 141.15-15.28 141.15-14.16L141.15-14.16Q141.15-13.96 141.15-13.77 141.15-13.57 141.17-13.38ZM161.51-18.95L161.51-18.95Q161.51-17.21 160.95-15.86 160.39-14.5 159.42-13.48 158.46-12.45 157.19-11.74 155.92-11.04 154.48-10.58 153.04-10.13 151.51-9.94 149.99-9.74 148.55-9.74L148.55-9.74Q146.72-9.74 144.93-10 143.15-10.25 141.42-10.82L141.42-10.82Q141.69-9.2 142.27-7.75 142.86-6.3 143.84-5.21 144.81-4.13 146.24-3.49 147.67-2.86 149.62-2.86L149.62-2.86Q150.92-2.86 152.09-3.25 153.26-3.64 154.24-4.35 155.21-5.05 155.96-6.03 156.7-7.01 157.17-8.2L157.17-8.2 160.73-6.88Q159.92-4.96 158.52-3.55 157.12-2.15 155.35-1.23 153.58-0.32 151.59 0.12 149.6 0.56 147.64 0.56L147.64 0.56Q144.42 0.56 141.69-0.52 138.95-1.61 136.97-3.56 135-5.52 133.87-8.23 132.75-10.94 132.75-14.16L132.75-14.16Q132.75-17.38 133.87-20.09 135-22.8 136.97-24.76 138.95-26.71 141.69-27.8 144.42-28.88 147.64-28.88L147.64-28.88Q149.21-28.88 150.84-28.66 152.48-28.44 154.02-27.97 155.55-27.49 156.92-26.73 158.29-25.98 159.3-24.87 160.31-23.75 160.91-22.29 161.51-20.83 161.51-18.95ZM199.57-9.55L199.57-9.55Q199.57-8.06 199.08-6.76 198.59-5.47 197.74-4.41 196.88-3.34 195.75-2.51 194.61-1.68 193.31-1.12 192-0.56 190.61-0.28 189.22 0 187.88 0L187.88 0 167.2 0 167.2-35.16 186.09-35.16Q187.34-35.16 188.71-34.97 190.07-34.79 191.38-34.4 192.69-34.01 193.87-33.37 195.05-32.74 195.94-31.82 196.84-30.91 197.36-29.71 197.89-28.52 197.89-26.98L197.89-26.98Q197.89-25.51 197.3-24.32 196.71-23.12 195.72-22.18 194.74-21.24 193.45-20.52 192.17-19.8 190.76-19.26L190.76-19.26Q192.54-18.77 194.14-17.97 195.74-17.16 196.95-15.99 198.15-14.82 198.86-13.22 199.57-11.62 199.57-9.55ZM188.05-26.12L188.05-26.12Q188.05-29.1 186.47-30.47 184.9-31.84 181.99-31.84L181.99-31.84 176.89-31.84 176.89-20.43 181.16-20.43Q182.48-20.43 183.73-20.76 184.97-21.09 185.93-21.79 186.9-22.49 187.47-23.56 188.05-24.63 188.05-26.12ZM189.76-10.16L189.76-10.16Q189.76-11.6 189.39-12.85 189.02-14.11 188.27-15.03 187.51-15.94 186.37-16.47 185.24-16.99 183.7-16.99L183.7-16.99 176.89-16.99 176.89-3.42 182.85-3.42Q184.34-3.42 185.61-3.91 186.87-4.39 187.8-5.27 188.73-6.15 189.24-7.4 189.76-8.64 189.76-10.16ZM234.28-14.16L234.28-14.16Q234.28-11.96 233.7-10.03 233.11-8.11 232.07-6.47 231.04-4.83 229.57-3.53 228.11-2.22 226.36-1.32 224.62-0.42 222.63 0.07 220.64 0.56 218.54 0.56L218.54 0.56Q216.44 0.56 214.46 0.07 212.48-0.42 210.74-1.32 208.99-2.22 207.53-3.53 206.06-4.83 205.02-6.47 203.99-8.11 203.4-10.05 202.81-11.99 202.81-14.16L202.81-14.16Q202.81-16.33 203.4-18.27 203.99-20.21 205.02-21.85 206.06-23.49 207.53-24.79 208.99-26.1 210.74-27 212.48-27.91 214.46-28.39 216.44-28.88 218.54-28.88L218.54-28.88Q220.64-28.88 222.63-28.39 224.62-27.91 226.36-27 228.11-26.1 229.57-24.79 231.04-23.49 232.07-21.85 233.11-20.21 233.7-18.27 234.28-16.33 234.28-14.16ZM225.89-14.16L225.89-14.16Q225.89-15.33 225.75-16.64 225.62-17.94 225.3-19.2 224.98-20.46 224.43-21.62 223.88-22.78 223.08-23.65 222.27-24.51 221.15-25.04 220.03-25.56 218.54-25.56L218.54-25.56Q217.12-25.56 216.02-25.02 214.92-24.49 214.11-23.6 213.29-22.71 212.74-21.53 212.19-20.36 211.85-19.1 211.51-17.85 211.36-16.56 211.21-15.28 211.21-14.16L211.21-14.16Q211.21-13.04 211.36-11.76 211.51-10.47 211.85-9.2 212.19-7.93 212.74-6.77 213.29-5.62 214.11-4.72 214.92-3.83 216.02-3.3 217.12-2.76 218.54-2.76L218.54-2.76Q220-2.76 221.13-3.28 222.25-3.81 223.07-4.69 223.88-5.57 224.42-6.71 224.96-7.86 225.29-9.13 225.62-10.4 225.75-11.69 225.89-12.99 225.89-14.16ZM269.27-14.16L269.27-14.16Q269.27-11.96 268.68-10.03 268.1-8.11 267.06-6.47 266.02-4.83 264.56-3.53 263.09-2.22 261.34-1.32 259.6-0.42 257.61 0.07 255.62 0.56 253.52 0.56L253.52 0.56Q251.42 0.56 249.44 0.07 247.47-0.42 245.72-1.32 243.97-2.22 242.51-3.53 241.04-4.83 240.01-6.47 238.97-8.11 238.38-10.05 237.8-11.99 237.8-14.16L237.8-14.16Q237.8-16.33 238.38-18.27 238.97-20.21 240.01-21.85 241.04-23.49 242.51-24.79 243.97-26.1 245.72-27 247.47-27.91 249.44-28.39 251.42-28.88 253.52-28.88L253.52-28.88Q255.62-28.88 257.61-28.39 259.6-27.91 261.34-27 263.09-26.1 264.56-24.79 266.02-23.49 267.06-21.85 268.1-20.21 268.68-18.27 269.27-16.33 269.27-14.16ZM260.87-14.16L260.87-14.16Q260.87-15.33 260.73-16.64 260.6-17.94 260.28-19.2 259.97-20.46 259.42-21.62 258.87-22.78 258.06-23.65 257.26-24.51 256.13-25.04 255.01-25.56 253.52-25.56L253.52-25.56Q252.1-25.56 251.01-25.02 249.91-24.49 249.09-23.6 248.27-22.71 247.72-21.53 247.17-20.36 246.83-19.1 246.49-17.85 246.34-16.56 246.2-15.28 246.2-14.16L246.2-14.16Q246.2-13.04 246.34-11.76 246.49-10.47 246.83-9.2 247.17-7.93 247.72-6.77 248.27-5.62 249.09-4.72 249.91-3.83 251.01-3.3 252.1-2.76 253.52-2.76L253.52-2.76Q254.98-2.76 256.11-3.28 257.23-3.81 258.05-4.69 258.87-5.57 259.4-6.71 259.94-7.86 260.27-9.13 260.6-10.4 260.73-11.69 260.87-12.99 260.87-14.16Z" opacity="1" transform="matrix(1,0,0,1,0,0)" fill="#ff4136" class="wordmark-text-0" data-fill-palette-color="primary" id="text-0"></path></svg></g></svg></g></svg></g></svg></g></svg></g></svg></g><g><path d="M245.816 0c68.262 0 123.6 55.338 123.6 123.6 0 68.262-55.338 123.6-123.6 123.6-60.131 0-110.233-42.94-121.317-99.828l1.768 0c11.058 55.925 60.379 98.094 119.549 98.094 67.305 0 121.866-54.561 121.865-121.866 0-67.305-54.561-121.866-121.865-121.866-59.17 0-108.491 42.169-119.549 98.094l-1.768 0c11.083-56.889 61.185-99.828 121.317-99.828z" fill="#ffdc00" stroke="transparent" data-fill-palette-color="tertiary"></path></g></svg></g><defs></defs></svg><rect width="395.52" height="247.2" fill="none" stroke="none" visibility="hidden"></rect></g></svg></g></svg>